<svg xmlns="http://www.w3.org/2000/svg" viewBox="0 0 2600 900" role="img" aria-labelledby="title desc">
  <title id="title">Filter Matryoshka hero banner</title>
  <desc id="desc">A wide editorial-style banner showing input, reasoning, output, and a red mismatch warning shield.</desc>
  <defs>
    <linearGradient id="bg" x1="0" y1="0" x2="1" y2="1">
      <stop offset="0" stop-color="#070707"/>
      <stop offset="0.55" stop-color="#101010"/>
      <stop offset="1" stop-color="#050505"/>
    </linearGradient>
    <filter id="grain" x="0" y="0" width="100%" height="100%">
      <feTurbulence type="fractalNoise" baseFrequency="0.88" numOctaves="3" stitchTiles="stitch"/>
      <feColorMatrix type="saturate" values="0"/>
      <feComponentTransfer><feFuncA type="table" tableValues="0 0.11"/></feComponentTransfer>
    </filter>
    <marker id="heroArrow" viewBox="0 0 8 8" refX="7" refY="4" markerWidth="7" markerHeight="7" orient="auto-start-reverse">
      <path d="M0 0 8 4 0 8Z" fill="#e8e8e3" opacity="0.78"/>
    </marker>
  </defs>

  <rect width="2600" height="900" fill="url(#bg)"/>
  <g opacity="0.1" stroke="#efefe9" stroke-width="1">
    <path d="M0 90H2600M0 180H2600M0 270H2600M0 360H2600M0 450H2600M0 540H2600M0 630H2600M0 720H2600M0 810H2600"/>
    <path d="M100 0V900M200 0V900M300 0V900M400 0V900M500 0V900M600 0V900M700 0V900M800 0V900M900 0V900M1000 0V900M1100 0V900M1200 0V900M1300 0V900M1400 0V900M1500 0V900M1600 0V900M1700 0V900M1800 0V900M1900 0V900M2000 0V900M2100 0V900M2200 0V900M2300 0V900M2400 0V900M2500 0V900"/>
  </g>
  <rect width="2600" height="900" filter="url(#grain)" opacity="0.28"/>

  <g opacity="0.58">
    <path d="M1440 52H2492M1440 114H2492M1440 176H2492M1440 238H2492" stroke="#efefe9" stroke-opacity="0.15"/>
    <path d="M1510 20V260M1660 20V260M1810 20V260M1960 20V260M2110 20V260M2260 20V260M2410 20V260" stroke="#efefe9" stroke-opacity="0.15"/>
    <path d="M1496 224 C1640 164 1748 178 1834 124 S2018 96 2120 140 2252 130 2368 74" fill="none" stroke="#efefe9" stroke-opacity="0.22" stroke-dasharray="6 8"/>
    <path d="M1552 122h20M1562 112v20M2014 146h20M2024 136v20M2330 98h20M2340 88v20" stroke="#efefe9" stroke-opacity="0.38"/>
  </g>

  <text x="120" y="110" fill="#91918b" font-family="JetBrains Mono, Consolas, monospace" font-size="18" font-weight="800" letter-spacing="4">DEFENSIVE NOTE / LLM SAFETY PIPELINE</text>
  <text x="120" y="244" fill="#efefe9" font-family="Inter, Segoe UI, sans-serif" font-size="112" font-weight="950" letter-spacing="-6">FILTER</text>
  <text x="120" y="348" fill="none" stroke="#efefe9" stroke-width="2" font-family="Inter, Segoe UI, sans-serif" font-size="112" font-weight="950" letter-spacing="-6">MATRYOSHKA</text>
  <text x="120" y="408" fill="#b4b4ad" font-family="Inter, Segoe UI, sans-serif" font-size="31">Input checks, reasoning traces, final output, and the gap between them.</text>

  <g transform="translate(1888 142)" opacity="0.9">
    <path d="M180 0 340 66v146c0 126-69 214-170 265C69 426 0 338 0 212V66Z" fill="#120707" stroke="#ff5a5f" stroke-width="4"/>
    <path d="M112 214 164 266 266 136" fill="none" stroke="#ff5a5f" stroke-width="18" stroke-linecap="square" stroke-linejoin="miter"/>
    <path d="M180 18V58M132 38h96" stroke="#ff5a5f" stroke-width="2" stroke-opacity="0.55"/>
  </g>
  <text x="1888" y="548" fill="#ff5a5f" font-family="JetBrains Mono, Consolas, monospace" font-size="18" font-weight="800" letter-spacing="3">RED ATTACK SURFACE</text>
  <text x="1888" y="576" fill="#8f8f89" font-family="JetBrains Mono, Consolas, monospace" font-size="18" font-weight="800" letter-spacing="3">SEPARATE FINAL MODERATION</text>

  <g transform="translate(120 532)">
    <rect width="430" height="126" fill="#0d0d0d" stroke="#5f5f5a"/>
    <g opacity="0.72" stroke="#efefe9" fill="none" stroke-width="1.3">
      <rect x="22" y="24" width="38" height="26"/>
      <path d="M28 58h28M28 66h22M28 74h18"/>
    </g>
    <text x="82" y="38" fill="#ff6b70" font-family="JetBrains Mono, Consolas, monospace" font-size="16" font-weight="900" letter-spacing="3">01 / INPUT</text>
    <text x="82" y="76" fill="#efefe9" font-family="Inter, Segoe UI, sans-serif" font-size="34" font-weight="860">prompt tokens</text>
    <text x="82" y="104" fill="#8f8f89" font-family="JetBrains Mono, Consolas, monospace" font-size="14">explicit markers are easy</text>
  </g>

  <g transform="translate(670 532)">
    <rect width="430" height="126" fill="#0d0d0d" stroke="#5f5f5a"/>
    <g opacity="0.72" stroke="#efefe9" fill="none" stroke-width="1.3">
      <circle cx="34" cy="34" r="6"/>
      <circle cx="34" cy="70" r="6"/>
      <circle cx="58" cy="52" r="6"/>
      <path d="M40 38 52 48M40 66 52 56M64 52h12"/>
    </g>
    <text x="82" y="38" fill="#ff6b70" font-family="JetBrains Mono, Consolas, monospace" font-size="16" font-weight="900" letter-spacing="3">02 / TRACE</text>
    <text x="82" y="76" fill="#efefe9" font-family="Inter, Segoe UI, sans-serif" font-size="34" font-weight="860">reasoning layer</text>
    <text x="82" y="104" fill="#8f8f89" font-family="JetBrains Mono, Consolas, monospace" font-size="14">intent may surface here</text>
  </g>

  <g transform="translate(1220 532)">
    <rect width="430" height="126" fill="#0d0d0d" stroke="#5f5f5a"/>
    <g opacity="0.72" stroke="#efefe9" fill="none" stroke-width="1.3">
      <rect x="24" y="22" width="34" height="42"/>
      <path d="M30 34h22M30 42h18M30 50h24M30 58h15"/>
    </g>
    <text x="82" y="38" fill="#ff6b70" font-family="JetBrains Mono, Consolas, monospace" font-size="16" font-weight="900" letter-spacing="3">03 / OUTPUT</text>
    <text x="82" y="76" fill="#efefe9" font-family="Inter, Segoe UI, sans-serif" font-size="34" font-weight="860">candidate text</text>
    <text x="82" y="104" fill="#8f8f89" font-family="JetBrains Mono, Consolas, monospace" font-size="14">must be checked again</text>
  </g>

  <g transform="translate(1770 532)">
    <rect width="470" height="126" fill="#15090a" stroke="#ff5a5f"/>
    <g opacity="0.86" stroke="#ff5a5f" fill="none" stroke-width="1.4">
      <path d="M28 24h36v36H28z"/>
      <path d="M34 30 58 54M58 30 34 54"/>
    </g>
    <text x="82" y="38" fill="#ff6b70" font-family="JetBrains Mono, Consolas, monospace" font-size="16" font-weight="900" letter-spacing="3">04 / GAP</text>
    <text x="82" y="76" fill="#efefe9" font-family="Inter, Segoe UI, sans-serif" font-size="34" font-weight="860">mismatch</text>
    <text x="82" y="104" fill="#8f8f89" font-family="JetBrains Mono, Consolas, monospace" font-size="14">control-plane drift</text>
  </g>

  <path d="M550 595H638" fill="none" stroke="#efefe9" stroke-opacity="0.75" stroke-width="1.2" marker-end="url(#heroArrow)"/>
  <path d="M1100 595H1188" fill="none" stroke="#efefe9" stroke-opacity="0.75" stroke-width="1.2" marker-end="url(#heroArrow)"/>
  <path d="M1650 595H1738" fill="none" stroke="#efefe9" stroke-opacity="0.75" stroke-width="1.2" marker-end="url(#heroArrow)"/>

  <path d="M120 724H2480" stroke="#efefe9" stroke-opacity="0.18"/>
  <text x="120" y="780" fill="#8f8f89" font-family="JetBrains Mono, Consolas, monospace" font-size="17" letter-spacing="2">NO PAYLOADS. NO EXPLOIT PROMPTS. REPRODUCIBILITY WITHOUT OPERATIONAL ABUSE.</text>
</svg>